<svg width="24" height="24" viewBox="0 0 24 24" fill="none" xmlns="http://www.w3.org/2000/svg">
<g clip-path="url(#clip0_901_2915)">
<path d="M12.0619 0C5.40096 0 0 5.40096 0 12.0619C0 18.1091 4.45503 23.1028 10.2587 23.9749V15.2583H7.27427V12.0879H10.2587V9.978C10.2587 6.48514 11.9603 4.95235 14.8635 4.95235C16.2535 4.95235 16.9897 5.05581 17.3372 5.1022V7.86948H15.3572C14.125 7.86948 13.6945 9.03856 13.6945 10.3552V12.0879H17.3061L16.8167 15.2583H13.6945V24C19.5816 23.2021 24.1239 18.1685 24.1239 12.0619C24.1239 5.40096 18.7234 0 12.0619 0Z" fill="white"/>
</g>
<defs>
<clipPath id="clip0_901_2915">
<rect width="24" height="24" fill="white"/>
</clipPath>
</defs>
</svg>
