<svg width="24" height="24" viewBox="0 0 24 24" fill="none" xmlns="http://www.w3.org/2000/svg">
<path fill-rule="evenodd" clip-rule="evenodd" d="M24 12C24 18.6274 18.6274 24 12 24C5.37258 24 0 18.6274 0 12C0 5.37258 5.37258 0 12 0C18.6274 0 24 5.37258 24 12ZM12.43 8.85893C11.2628 9.3444 8.93011 10.3492 5.43186 11.8733C4.8638 12.0992 4.56623 12.3202 4.53914 12.5363C4.49336 12.9015 4.95068 13.0453 5.57345 13.2411C5.65815 13.2678 5.74593 13.2954 5.83591 13.3246C6.44861 13.5238 7.2728 13.7568 7.70126 13.766C8.08991 13.7744 8.5237 13.6142 9.00261 13.2853C12.2711 11.079 13.9584 9.96381 14.0643 9.93977C14.139 9.92281 14.2426 9.90148 14.3127 9.96385C14.3829 10.0262 14.376 10.1443 14.3686 10.176C14.3233 10.3691 12.5281 12.0381 11.5991 12.9018C11.3095 13.171 11.104 13.362 11.062 13.4056C10.968 13.5034 10.8721 13.5958 10.7799 13.6846C10.2107 14.2333 9.78388 14.6448 10.8036 15.3168C11.2936 15.6397 11.6857 15.9068 12.0769 16.1732C12.5042 16.4641 12.9303 16.7543 13.4816 17.1157C13.622 17.2078 13.7562 17.3034 13.8869 17.3965C14.384 17.751 14.8307 18.0694 15.3826 18.0186C15.7032 17.9891 16.0344 17.6876 16.2026 16.7884C16.6002 14.6631 17.3816 10.0585 17.5622 8.16097C17.578 7.99473 17.5581 7.78197 17.5421 7.68857C17.5261 7.59518 17.4927 7.46211 17.3713 7.3636C17.2276 7.24694 17.0056 7.22234 16.9063 7.22408C16.455 7.23203 15.7625 7.47282 12.43 8.85893Z" fill="white"/>
</svg>
