<svg width="29" height="24" viewBox="0 0 29 24" fill="none" xmlns="http://www.w3.org/2000/svg">
<path d="M25.2022 6.39542C25.2186 6.63311 25.2186 6.87081 25.2186 7.11069C25.2186 14.4201 19.6541 22.8501 9.47925 22.8501V22.8457C6.47356 22.8501 3.5303 21.9891 1 20.3658C1.43705 20.4183 1.8763 20.4446 2.31663 20.4457C4.8075 20.4479 7.22717 19.6121 9.18679 18.0731C6.8197 18.0282 4.74397 16.4849 4.01884 14.2317C4.84803 14.3916 5.70242 14.3588 6.51628 14.1364C3.93559 13.615 2.07894 11.3476 2.07894 8.71431C2.07894 8.69021 2.07894 8.66721 2.07894 8.64421C2.84789 9.0725 3.70885 9.31019 4.58952 9.33648C2.1589 7.71205 1.40967 4.47852 2.87746 1.95041C5.68599 5.4063 9.82977 7.50722 14.2781 7.72958C13.8322 5.8083 14.4413 3.79501 15.8784 2.44442C18.1064 0.350072 21.6105 0.457418 23.7048 2.6843C24.9437 2.44004 26.1311 1.98546 27.2177 1.34138C26.8047 2.62187 25.9405 3.70957 24.7859 4.40075C25.8824 4.27149 26.9537 3.97794 27.9625 3.52993C27.2199 4.64282 26.2844 5.61223 25.2022 6.39542Z" fill="white"/>
</svg>
