<svg width="24" height="24" viewBox="0 0 24 24" fill="none" xmlns="http://www.w3.org/2000/svg">
<path d="M20.5033 3.55117C18.2472 1.32003 15.2468 0.0906782 12.0501 0.0894241C5.46351 0.0894241 0.102833 5.38432 0.100197 11.8926C0.0993506 13.973 0.649604 16.0038 1.69531 17.7938L0 23.9106L6.33479 22.2692C8.08022 23.2095 10.0453 23.7051 12.0453 23.7059H12.0502C18.6362 23.7059 23.9973 18.4104 24 11.902C24.0013 8.74802 22.7595 5.7823 20.5033 3.55117V3.55117ZM12.0502 21.7123H12.0462C10.2639 21.7117 8.51592 21.2387 6.99097 20.3448L6.62825 20.1322L2.8691 21.1063L3.8725 17.4859L3.63628 17.1147C2.64205 15.5526 2.11696 13.7471 2.11774 11.8934C2.11988 6.48399 6.5755 2.08303 12.0541 2.08303C14.7069 2.08403 17.2007 3.10592 19.076 4.96033C20.9512 6.81474 21.9833 9.27977 21.9824 11.9013C21.9802 17.3111 17.5246 21.7123 12.0502 21.7123V21.7123ZM17.4983 14.3644C17.1996 14.2168 15.7317 13.5033 15.458 13.4048C15.1843 13.3064 14.9853 13.2572 14.7861 13.5525C14.5872 13.8477 14.0149 14.5121 13.8407 14.7089C13.6665 14.9058 13.4924 14.9304 13.1938 14.7827C12.8952 14.6351 11.9331 14.3237 10.7927 13.3189C9.90507 12.5369 9.30578 11.5709 9.13161 11.2756C8.95745 10.9803 9.1131 10.8208 9.26256 10.6737C9.39687 10.5416 9.56114 10.3292 9.71044 10.157C9.85971 9.9848 9.9095 9.86171 10.009 9.66489C10.1086 9.46804 10.0588 9.29578 9.98412 9.14816C9.9095 9.00054 9.31232 7.5488 9.0635 6.95828C8.82116 6.38315 8.57495 6.46097 8.39168 6.45193C8.21771 6.44338 8.01845 6.44158 7.81942 6.44158C7.6204 6.44158 7.2969 6.51537 7.02322 6.81065C6.74954 7.10593 5.9782 7.81948 5.9782 9.27118C5.9782 10.7229 7.04808 12.1254 7.19738 12.3222C7.34669 12.5191 9.30282 15.4982 12.2981 16.7757C13.0105 17.0796 13.5666 17.2611 14.0003 17.397C14.7155 17.6214 15.3664 17.5898 15.881 17.5139C16.4546 17.4292 17.6475 16.8004 17.8964 16.1114C18.1452 15.4225 18.1452 14.832 18.0705 14.7089C17.9959 14.5859 17.7968 14.5121 17.4983 14.3644V14.3644Z" fill="white"/>
</svg>
