<svg width="29" height="24" viewBox="0 0 29 24" fill="none" xmlns="http://www.w3.org/2000/svg">
<g clip-path="url(#clip0_901_2913)">
<path d="M28.4027 5.02476C28.0683 3.78259 27.0888 2.80319 25.8467 2.46876C23.5773 1.84767 14.4999 1.84767 14.4999 1.84767C14.4999 1.84767 5.42255 1.84767 3.1532 2.44487C1.93492 2.7793 0.931627 3.78259 0.597197 5.02476C0 7.29411 0 12 0 12C0 12 0 16.7298 0.597197 18.9753C0.931627 20.2174 1.91103 21.1968 3.1532 21.5313C5.44644 22.1524 14.4999 22.1524 14.4999 22.1524C14.4999 22.1524 23.5773 22.1524 25.8467 21.5552C27.0888 21.2207 28.0683 20.2413 28.4027 18.9992C28.9999 16.7298 28.9999 12.0239 28.9999 12.0239C28.9999 12.0239 29.0238 7.29411 28.4027 5.02476ZM11.6095 16.3476V7.65242L19.1581 12L11.6095 16.3476Z" fill="white"/>
</g>
<defs>
<clipPath id="clip0_901_2913">
<rect width="29" height="24" fill="white"/>
</clipPath>
</defs>
</svg>
